<mxfile host="app.diagrams.net" modified="2024-02-22T09:30:34.636Z" agent="Mozilla/5.0 (Macintosh; Intel Mac OS X 10_15_7) AppleWebKit/537.36 (KHTML, like Gecko) Chrome/113.0.0.0 Safari/537.36" version="23.1.5" etag="d2EGd2FqVNsi1As66skb" type="github">
  <diagram name="第 1 页" id="2nJuQJ6Emi3yVhcg579J">
    <mxGraphModel>
      <root>
        <mxCell id="0" />
        <mxCell id="1" parent="0" />
      </root>
    </mxGraphModel>
  </diagram>
</mxfile>
